<mxfile host="app.diagrams.net" modified="2020-10-01T16:18:10.562Z" agent="5.0 (X11; Linux x86_64) AppleWebKit/537.36 (KHTML, like Gecko) Chrome/85.0.4183.102 Safari/537.36" etag="UitHdpQ0BPm5d-H8oaJS" version="13.7.7" type="github">
  <diagram id="C5RBs43oDa-KdzZeNtuy" name="Page-1">
    <mxGraphModel dx="1355" dy="722" grid="1" gridSize="10" guides="1" tooltips="1" connect="1" arrows="1" fold="1" page="1" pageScale="1" pageWidth="827" pageHeight="1169" math="0" shadow="0">
      <root>
        <mxCell id="WIyWlLk6GJQsqaUBKTNV-0" />
        <mxCell id="WIyWlLk6GJQsqaUBKTNV-1" parent="WIyWlLk6GJQsqaUBKTNV-0" />
        <mxCell id="Saz9WezW0xM6SYnroJDO-16" value="" style="rounded=0;whiteSpace=wrap;html=1;fillColor=#bac8d3;strokeColor=#23445d;" vertex="1" parent="WIyWlLk6GJQsqaUBKTNV-1">
          <mxGeometry x="49" y="100" width="730" height="120" as="geometry" />
        </mxCell>
        <mxCell id="Saz9WezW0xM6SYnroJDO-14" value="" style="rounded=0;whiteSpace=wrap;html=1;fillColor=#dae8fc;strokeColor=#6c8ebf;" vertex="1" parent="WIyWlLk6GJQsqaUBKTNV-1">
          <mxGeometry x="49" y="350" width="730" height="120" as="geometry" />
        </mxCell>
        <mxCell id="Saz9WezW0xM6SYnroJDO-20" value="" style="edgeStyle=orthogonalEdgeStyle;rounded=0;orthogonalLoop=1;jettySize=auto;html=1;" edge="1" parent="WIyWlLk6GJQsqaUBKTNV-1" source="WIyWlLk6GJQsqaUBKTNV-3" target="Saz9WezW0xM6SYnroJDO-0">
          <mxGeometry relative="1" as="geometry" />
        </mxCell>
        <mxCell id="WIyWlLk6GJQsqaUBKTNV-3" value="Documents/davidgreavesart" style="rounded=1;whiteSpace=wrap;html=1;fontSize=12;glass=0;strokeWidth=1;shadow=0;" parent="WIyWlLk6GJQsqaUBKTNV-1" vertex="1">
          <mxGeometry x="104" y="390" width="170" height="40" as="geometry" />
        </mxCell>
        <mxCell id="Saz9WezW0xM6SYnroJDO-21" value="" style="edgeStyle=orthogonalEdgeStyle;rounded=0;orthogonalLoop=1;jettySize=auto;html=1;" edge="1" parent="WIyWlLk6GJQsqaUBKTNV-1" source="Saz9WezW0xM6SYnroJDO-0" target="Saz9WezW0xM6SYnroJDO-1">
          <mxGeometry relative="1" as="geometry" />
        </mxCell>
        <mxCell id="Saz9WezW0xM6SYnroJDO-0" value="&lt;b&gt;rclone&lt;br&gt;&lt;/b&gt;remote: daivdgreavesart_sync:&amp;nbsp;&lt;br&gt;run process weekly with script" style="rounded=1;whiteSpace=wrap;html=1;" vertex="1" parent="WIyWlLk6GJQsqaUBKTNV-1">
          <mxGeometry x="90" y="240" width="200" height="90" as="geometry" />
        </mxCell>
        <mxCell id="Saz9WezW0xM6SYnroJDO-1" value="Google Dirve&lt;br&gt;acct: davidgreavesart@gmail.com" style="rounded=1;whiteSpace=wrap;html=1;" vertex="1" parent="WIyWlLk6GJQsqaUBKTNV-1">
          <mxGeometry x="89" y="130" width="200" height="60" as="geometry" />
        </mxCell>
        <mxCell id="Saz9WezW0xM6SYnroJDO-11" value="" style="edgeStyle=orthogonalEdgeStyle;rounded=0;orthogonalLoop=1;jettySize=auto;html=1;" edge="1" parent="WIyWlLk6GJQsqaUBKTNV-1" source="Saz9WezW0xM6SYnroJDO-3" target="Saz9WezW0xM6SYnroJDO-5">
          <mxGeometry relative="1" as="geometry" />
        </mxCell>
        <mxCell id="Saz9WezW0xM6SYnroJDO-3" value="web/davidgreavesart" style="rounded=1;whiteSpace=wrap;html=1;fontSize=12;glass=0;strokeWidth=1;shadow=0;" vertex="1" parent="WIyWlLk6GJQsqaUBKTNV-1">
          <mxGeometry x="344" y="390" width="170" height="40" as="geometry" />
        </mxCell>
        <mxCell id="Saz9WezW0xM6SYnroJDO-4" value="GitHub&lt;br&gt;2014269/davidgreavesart" style="rounded=1;whiteSpace=wrap;html=1;" vertex="1" parent="WIyWlLk6GJQsqaUBKTNV-1">
          <mxGeometry x="344" y="130" width="170" height="60" as="geometry" />
        </mxCell>
        <mxCell id="Saz9WezW0xM6SYnroJDO-8" value="" style="edgeStyle=orthogonalEdgeStyle;rounded=0;orthogonalLoop=1;jettySize=auto;html=1;" edge="1" parent="WIyWlLk6GJQsqaUBKTNV-1" source="Saz9WezW0xM6SYnroJDO-5" target="Saz9WezW0xM6SYnroJDO-4">
          <mxGeometry relative="1" as="geometry" />
        </mxCell>
        <mxCell id="Saz9WezW0xM6SYnroJDO-5" value="TBD" style="rounded=1;whiteSpace=wrap;html=1;" vertex="1" parent="WIyWlLk6GJQsqaUBKTNV-1">
          <mxGeometry x="396" y="255" width="66" height="60" as="geometry" />
        </mxCell>
        <mxCell id="Saz9WezW0xM6SYnroJDO-12" value="Local Testing Environment&lt;br&gt;XAMPP" style="rounded=1;whiteSpace=wrap;html=1;" vertex="1" parent="WIyWlLk6GJQsqaUBKTNV-1">
          <mxGeometry x="579" y="380" width="170" height="60" as="geometry" />
        </mxCell>
        <mxCell id="Saz9WezW0xM6SYnroJDO-13" value="" style="edgeStyle=elbowEdgeStyle;elbow=horizontal;endArrow=classic;html=1;exitX=0.5;exitY=1;exitDx=0;exitDy=0;entryX=0;entryY=0.5;entryDx=0;entryDy=0;" edge="1" parent="WIyWlLk6GJQsqaUBKTNV-1" source="Saz9WezW0xM6SYnroJDO-24" target="Saz9WezW0xM6SYnroJDO-12">
          <mxGeometry width="50" height="50" relative="1" as="geometry">
            <mxPoint x="329" y="280" as="sourcePoint" />
            <mxPoint x="379" y="230" as="targetPoint" />
            <Array as="points">
              <mxPoint x="550" y="390" />
            </Array>
          </mxGeometry>
        </mxCell>
        <mxCell id="Saz9WezW0xM6SYnroJDO-17" value="Notes on information flow for davidgreavesart.com" style="text;strokeColor=none;fillColor=none;html=1;fontSize=24;fontStyle=1;verticalAlign=middle;align=center;" vertex="1" parent="WIyWlLk6GJQsqaUBKTNV-1">
          <mxGeometry x="270" y="20" width="100" height="40" as="geometry" />
        </mxCell>
        <UserObject label="Local Machine" placeholders="1" name="Variable" id="Saz9WezW0xM6SYnroJDO-18">
          <mxCell style="text;html=1;strokeColor=none;fillColor=none;align=center;verticalAlign=middle;whiteSpace=wrap;overflow=hidden;" vertex="1" parent="WIyWlLk6GJQsqaUBKTNV-1">
            <mxGeometry x="49" y="350" width="90" height="20" as="geometry" />
          </mxCell>
        </UserObject>
        <UserObject label="Internet" placeholders="1" name="Variable" id="Saz9WezW0xM6SYnroJDO-19">
          <mxCell style="text;html=1;strokeColor=none;fillColor=none;align=center;verticalAlign=middle;whiteSpace=wrap;overflow=hidden;" vertex="1" parent="WIyWlLk6GJQsqaUBKTNV-1">
            <mxGeometry x="49" y="100" width="50" height="20" as="geometry" />
          </mxCell>
        </UserObject>
        <UserObject label="Work Files" placeholders="1" name="Variable" id="Saz9WezW0xM6SYnroJDO-22">
          <mxCell style="text;html=1;strokeColor=none;fillColor=none;align=center;verticalAlign=middle;whiteSpace=wrap;overflow=hidden;" vertex="1" parent="WIyWlLk6GJQsqaUBKTNV-1">
            <mxGeometry x="144" y="440" width="90" height="20" as="geometry" />
          </mxCell>
        </UserObject>
        <UserObject label="Web&amp;nbsp;Files" placeholders="1" name="Variable" id="Saz9WezW0xM6SYnroJDO-23">
          <mxCell style="text;html=1;strokeColor=none;fillColor=none;align=center;verticalAlign=middle;whiteSpace=wrap;overflow=hidden;" vertex="1" parent="WIyWlLk6GJQsqaUBKTNV-1">
            <mxGeometry x="384" y="440" width="90" height="20" as="geometry" />
          </mxCell>
        </UserObject>
        <mxCell id="Saz9WezW0xM6SYnroJDO-24" value="TBD" style="rounded=1;whiteSpace=wrap;html=1;" vertex="1" parent="WIyWlLk6GJQsqaUBKTNV-1">
          <mxGeometry x="513" y="250" width="66" height="60" as="geometry" />
        </mxCell>
        <mxCell id="Saz9WezW0xM6SYnroJDO-25" value="" style="edgeStyle=elbowEdgeStyle;elbow=horizontal;endArrow=classic;html=1;exitX=1;exitY=0.5;exitDx=0;exitDy=0;" edge="1" parent="WIyWlLk6GJQsqaUBKTNV-1" source="Saz9WezW0xM6SYnroJDO-4">
          <mxGeometry width="50" height="50" relative="1" as="geometry">
            <mxPoint x="514" y="160" as="sourcePoint" />
            <mxPoint x="546" y="250" as="targetPoint" />
            <Array as="points">
              <mxPoint x="546" y="250" />
            </Array>
          </mxGeometry>
        </mxCell>
        <mxCell id="Saz9WezW0xM6SYnroJDO-26" value="Wordpress&lt;br&gt;www.davidgreavesart.com" style="rounded=1;whiteSpace=wrap;html=1;" vertex="1" parent="WIyWlLk6GJQsqaUBKTNV-1">
          <mxGeometry x="579" y="130" width="170" height="60" as="geometry" />
        </mxCell>
      </root>
    </mxGraphModel>
  </diagram>
</mxfile>
